<?xml version="1.0" encoding="UTF-8" standalone="no"?>
<svg
   xmlns:dc="http://purl.org/dc/elements/1.1/"
   xmlns:cc="http://creativecommons.org/ns#"
   xmlns:rdf="http://www.w3.org/1999/02/22-rdf-syntax-ns#"
   xmlns:svg="http://www.w3.org/2000/svg"
   xmlns="http://www.w3.org/2000/svg"
   xmlns:sodipodi="http://sodipodi.sourceforge.net/DTD/sodipodi-0.dtd"
   xmlns:inkscape="http://www.inkscape.org/namespaces/inkscape"
   version="1.1"
   x="0px"
   y="0px"
   viewBox="0 0 100 100"
   enable-background="new 0 0 100 100"
   xml:space="preserve"
   id="svg3034"
   inkscape:version="0.48.5 r10040"
   width="100%"
   height="100%"
   sodipodi:docname="emblem.svg"><title
     id="title3078">Whale by laymi, UA</title><metadata
     id="metadata3046"><rdf:RDF><cc:Work
         rdf:about=""><dc:format>image/svg+xml</dc:format><dc:type
           rdf:resource="http://purl.org/dc/dcmitype/StillImage" /><dc:title>Whale by laymi, UA</dc:title><cc:license
           rdf:resource="https://creativecommons.org/licenses/by/3.0/us/" /><dc:creator><cc:Agent><dc:title>maludk@i.ua</dc:title></cc:Agent></dc:creator><dc:source>https://thenounproject.com/term/whale/1197110/</dc:source><dc:description>Slightly modified to become the modofu logo</dc:description></cc:Work></rdf:RDF></metadata><defs
     id="defs3044" /><sodipodi:namedview
     pagecolor="#ffffff"
     bordercolor="#666666"
     borderopacity="1"
     objecttolerance="10"
     gridtolerance="10"
     guidetolerance="10"
     inkscape:pageopacity="1"
     inkscape:pageshadow="2"
     inkscape:window-width="1111"
     inkscape:window-height="764"
     id="namedview3042"
     showgrid="false"
     inkscape:zoom="1.968"
     inkscape:cx="-61.788618"
     inkscape:cy="62.5"
     inkscape:window-x="564"
     inkscape:window-y="188"
     inkscape:window-maximized="0"
     inkscape:current-layer="svg3034" /><path
     d="m 84.527889,33.785317 c 1.273,-1.235 2.313,-2.661 2.436,-3.477 0,0 0.076,-0.475 -0.202,-0.798 -0.32,-0.372 -0.804,-0.351 -0.804,-0.351 -3.843,0.065 -8.723,-0.749 -10.153,-1.967 0.346,-1.693 0.056,-2.751 -0.312,-4.049 -0.142,-0.499 -0.3,-1.056 -0.442,-1.738 -0.661,-3.177 -2.609,-2.875 -5.076,-2.492 -0.361,0.056 -0.756,0.118 -1.188,0.178 -1.488,0.208 -3.051,0.91 -4.563,1.589 -1.83,0.822 -3.723,1.673 -5.088,1.42 -1.783,-0.33 -3.019,-0.278 -3.743,-0.178 -0.489,0.069 -0.911,0.375 -1.129,0.818 -0.218,0.442 -0.203,0.962 0.04,1.391 0.29,0.511 0.329,0.889 0.116,1.122 -1.105,1.216 -0.965,3.485 -0.819,4.575 -1.144,1.179 -5.294,5.183 -9.805,6.168 -0.433,0.094 -0.738,0.456 -0.782,0.873 -0.024,0.108 -0.033,0.218 -0.022,0.32 0.062,0.578 0.126,1.051 4.343,2.906 -1.077,1.04 -2.212,2.188 -3.476,3.534 -6.458,6.876 -17.974,12.654 -24.175,9.954 -1.694,-0.738 -3.491,-1.961 -5.214,-3.543 -0.941,-5.112 2.652,-9.97 4.267,-11.846 0.462,-0.536 0.532,-1.279 0.182,-1.892 -0.354,-0.615 -1.035,-0.932 -1.725,-0.803 -1.806,0.324 -4.088,1.64 -5.688,2.688 -0.174,0.115 -0.4,0.07 -0.517,-0.1 -0.843,-1.235 -2.1379996,-2.981 -3.5229996,-4.29 -0.391,-0.366 -0.947,-0.48 -1.455,-0.294 -0.506,0.186 -0.858,0.633 -0.92,1.168 -0.69,6.09 3.586,12.579 7.5519996,16.395 l 0.004,0.006 c 0.03,0.124 0.064,0.25 0.1,0.38 2.325,8.13 17.578,25.724 42.303,29.553 1.386,0.215 2.896,0.313 4.48,0.313 7.756,0 17.238,-2.373 22.039,-5.127 2.999,-1.723 5.303,-3.54 7.15,-5.607 l 0.298,-0.252 v -0.125 c 4,-4.498 5.966,-10.212 5.966,-16.134 0,-8.133 -3.872,-15.613 -10.455,-20.288 z m -72.201,14.046 c -2.7539996,-3.178 -5.2399996,-7.478 -5.3109996,-11.621 0.967,1.083 1.828,2.286 2.321,3.007 0.7289996,1.065 2.1969996,1.353 3.2679996,0.642 1.492,-0.978 2.833,-1.695 3.896,-2.09 -1.635,2.097 -3.999,5.83 -4.174,10.062 z m 43.574,-21.232 c 0.673,-0.739 0.831,-1.715 0.468,-2.751 0.578,-0.016 1.376,0.028 2.404,0.219 1.973,0.365 4.161,-0.614 6.272,-1.563 1.383,-0.622 2.813,-1.264 4.019,-1.433 0.442,-0.062 0.848,-0.125 1.219,-0.182 2.534,-0.396 2.537,-0.395 2.812,0.924 0.154,0.743 0.324,1.344 0.475,1.875 0.325,1.147 0.522,1.845 0.303,2.998 -4.897,1.43 -12.892,2.505 -18.327,2.484 -0.085,-1.002 -0.019,-2.16 0.355,-2.571 z m -0.809,4.57 c 5.593,0.095 14.114,-1.042 19.311,-2.55 2.1,1.886 7.173,2.374 9.857,2.499 -1.212,1.514 -3.662,3.785 -5.65,3.396 -2.676,-0.529 -5.607,0.739 -9.004,2.209 -1.362,0.589 -2.771,1.199 -4.231,1.717 -4.867,1.727 -12.163,1.033 -17.771,-1.685 3.644,-1.76 6.544,-4.6 7.488,-5.586 z m 32.241,38.006 -0.037,0.042 c -1.667,1.886 -3.867,3.601 -6.725,5.241 -5.381,3.088 -17.573,5.76 -25.217,4.571 -21.288,-3.296 -35.237,-16.979 -39.55,-25.357 1.033,0.716 2.07,1.304 3.081,1.745 7.063,3.076 19.371,-2.902 26.431,-10.418 1.909,-2.03 3.528,-3.63 5.063,-5.017 2.887,0.907 5.964,1.387 8.869,1.387 2.471,0 4.813,-0.341 6.796,-1.045 1.523,-0.541 2.964,-1.164 4.356,-1.766 3.092,-1.338 5.76,-2.494 7.821,-2.083 1.42,0.281 3.057,-0.186 4.72,-1.354 0.004,-0.003 0.008,-0.006 0.012,-0.009 6.31,4.276 10.064,11.308 10.064,18.961 0,2.295 -0.362,4.55 -1.023,6.707 -1.163,0.099 -2.31,0.703 -3.682,1.439 -2.004,1.075 -4.496,2.413 -8.22,2.757 -3.31,0.323 -6.692,-1.866 -8.316,-3.106 10e-4,-0.027 0.008,-0.052 0.008,-0.08 0,-0.926 -0.754,-1.68 -1.68,-1.68 -0.926,0 -1.68,0.754 -1.68,1.68 0,0.926 0.754,1.68 1.68,1.68 0.138,0 0.27,-0.021 0.398,-0.053 1.702,1.31 5.198,3.588 8.951,3.588 0.272,0 0.547,-0.012 0.821,-0.037 4.128,-0.382 6.933,-1.887 8.981,-2.986 0.713,-0.382 1.347,-0.721 1.909,-0.945 -0.941,2.217 -2.215,4.298 -3.831,6.138 z m -32.925,1.3 c -5.131,1.373 -6.847,1.301 -7.375,1.187 0.388,-0.767 2.211,-2.457 4.131,-3.797 0.453,-0.316 0.563,-0.939 0.248,-1.393 -0.315,-0.452 -0.938,-0.562 -1.393,-0.248 -2.705,1.888 -5.753,4.519 -4.907,6.338 0.321,0.691 0.997,1.152 2.621,1.151 1.472,0 3.723,-0.378 7.192,-1.307 0.533,-0.143 0.85,-0.69 0.707,-1.225 -0.141,-0.532 -0.69,-0.849 -1.224,-0.706 z m 23.686,-14.559 c 2.059,0 3.733,-1.769 3.733,-3.942 0,-2.173 -1.675,-3.942 -3.733,-3.942 -2.06,0 -3.734,1.768 -3.734,3.942 0,2.174 1.675,3.942 3.734,3.942 z m 0,-5.884 c 0.535,0 1.008,0.279 1.326,0.707 -0.181,-0.059 -0.37,-0.101 -0.569,-0.101 -1.091,0 -1.976,0.958 -1.976,2.139 0,0.239 0.045,0.465 0.111,0.679 -0.38,-0.357 -0.627,-0.885 -0.627,-1.482 10e-4,-1.071 0.779,-1.942 1.735,-1.942 z"
     id="path3036"
     inkscape:connector-curvature="0"
     style="fill:#0096eb;fill-opacity:1" /></svg>